<?xml version="1.0" encoding="UTF-8" standalone="no"?>
<!-- Created with Inkscape (http://www.inkscape.org/) -->

<svg
   xmlns:dc="http://purl.org/dc/elements/1.1/"
   xmlns:cc="http://creativecommons.org/ns#"
   xmlns:rdf="http://www.w3.org/1999/02/22-rdf-syntax-ns#"
   xmlns:svg="http://www.w3.org/2000/svg"
   xmlns="http://www.w3.org/2000/svg"
   xmlns:sodipodi="http://sodipodi.sourceforge.net/DTD/sodipodi-0.dtd"
   xmlns:inkscape="http://www.inkscape.org/namespaces/inkscape"
   width="84"
   height="46"
   viewBox="0 0 84.000002 46.000002"
   id="svg2"
   version="1.1"
   inkscape:version="0.91 r13725"
   sodipodi:docname="wator_logo.svg">
  <defs
     id="defs4" />
  <sodipodi:namedview
     id="base"
     pagecolor="#ffffff"
     bordercolor="#666666"
     borderopacity="1.0"
     inkscape:pageopacity="0.0"
     inkscape:pageshadow="2"
     inkscape:zoom="16"
     inkscape:cx="21.040585"
     inkscape:cy="10.731417"
     inkscape:document-units="px"
     inkscape:current-layer="layer1"
     showgrid="false"
     inkscape:window-width="3219"
     inkscape:window-height="2038"
     inkscape:window-x="591"
     inkscape:window-y="65"
     inkscape:window-maximized="0"
     units="px" />
  <metadata
     id="metadata7">
    <rdf:RDF>
      <cc:Work
         rdf:about="">
        <dc:format>image/svg+xml</dc:format>
        <dc:type
           rdf:resource="http://purl.org/dc/dcmitype/StillImage" />
        <dc:title></dc:title>
      </cc:Work>
    </rdf:RDF>
  </metadata>
  <g
     inkscape:label="Layer 1"
     inkscape:groupmode="layer"
     id="layer1"
     transform="translate(0,-1006.3622)">
    <path
       style="fill:#8b0028;fill-opacity:1;fill-rule:evenodd;stroke:#000000;stroke-width:0.2px;stroke-linecap:butt;stroke-linejoin:miter;stroke-opacity:1"
       d="m 39.543812,1017.1475 c 0,0 2.53854,-8.011 11.01068,-10.1016 0.6865,-0.17 -5.75788,4.6468 -2.5254,9.7986 z"
       id="path4149"
       inkscape:connector-curvature="0"
       sodipodi:nodetypes="cscc" />
    <path
       style="fill:#8b0028;fill-opacity:1;fill-rule:evenodd;stroke:#000000;stroke-width:0.2px;stroke-linecap:butt;stroke-linejoin:miter;stroke-opacity:1"
       d="m 44.492452,1015.7331 c 11.71418,-0.054 22.10804,16.4174 22.10804,16.4174 0,0 4.2087,-4.1638 16.98598,-4.1944 -5.885988,3.2204 -5.832803,2.3779 -10.69816,9.0296 2.6264,5.4548 10.2941,9.7592 10.2941,9.7592 -10.90964,-2.5254 -15.25882,-6.6702 -15.25882,-6.6702 0,0 -16.61722,5.0326 -34.35216,7.8322 -5.370641,0.8478 -9.503101,6.7884 -14.935021,0.19 12.735081,-4.0878 17.159281,-8.4114 16.586281,-10.0656 -7.622541,-22.0044 -16.094401,-9.3016 -19.412661,-8.6384 -3.66132,0.7316 -4.07476,-3.1142 -5.5518,-7.4332 1.61624,-2.7274 12.01436,-6.1266 34.234221,-6.2276 z"
       id="path4142"
       inkscape:connector-curvature="0"
       sodipodi:nodetypes="ccccccscsscsc" />
    <path
       style="fill:#098b00;fill-opacity:1;fill-rule:evenodd;stroke:#000000;stroke-width:0.2px;stroke-linecap:butt;stroke-linejoin:miter;stroke-opacity:1"
       d="m 6.5106705,1029.7669 c -0.0692,2e-4 -0.136,0 -0.2008,0 -4.14162,0.303 -5.96013995,6.263 -5.96013995,6.263 0,0 3.73781995,1.6164 6.97029995,6.4652 -0.40406,1.9192 -3.03046,4.1414 -3.03046,4.1414 0,0 3.93938,4.2426 8.1820205,3.2324 4.24264,-1.0102 10.8086,-9.0912 10.8086,-9.0912 0,0 2.4794,3.1934 3.40848,1.3002 0.74188,-1.5114 0.1292,-8.1332 -0.8407,-8.531 -1.5509,-0.6362 -3.64026,3.8714 -4.17832,3.5282 -3.84946,-2.4554 -11.9014205,-7.3282 -15.1589805,-7.3156 z m -2.14844,4.1316 c 0.52086,0 1.1898,0.094 2.04844,0.3208 3.4345,0.9092 6.5660005,3.0304 6.5660005,3.0304 l 1.11134,2.8282 2.62616,5.455 c 0,0 -1.00992,-0.8082 -3.13124,-0.8082 -2.12132,0 -3.13142,2.5254 -4.7476605,2.5254 -1.61624,0 -3.03046,-0.202 -3.03046,-0.202 l 2.32342,-4.0406 c 0,0 -1.71734,-3.6366 -3.33358,-5.657 -1.61624,-2.0202 -2.22228,-2.7274 -2.22228,-2.7274 0,0 0.22728,-0.7388 1.78986,-0.7246 z"
       id="path4144"
       inkscape:connector-curvature="0"
       sodipodi:nodetypes="cccccscssscsscccssccscs" />
    <path
       style="fill:#ffffff;fill-opacity:1;fill-rule:nonzero;stroke:none;stroke-width:1;stroke-linecap:round;stroke-linejoin:round;stroke-miterlimit:4;stroke-dasharray:none;stroke-opacity:1"
       d="m 20.087829,1022.0053 c 0.0096,-0.4744 1.115734,-1.343 2.502218,-1.342 1.386676,10e-4 2.532332,0.8714 2.535846,1.3458 0.0036,0.4742 -0.844258,0.4718 -3.121196,0.8192 -0.880588,-0.154 -1.540726,0.14 -1.916868,-0.823 z"
       id="path5009"
       inkscape:connector-curvature="0"
       sodipodi:nodetypes="csccc" />
    <path
       style="fill:#000000;fill-opacity:1;fill-rule:evenodd;stroke:none;stroke-width:1px;stroke-linecap:butt;stroke-linejoin:miter;stroke-opacity:1"
       d="m 20.441321,1022.4975 c 0,0 0.552428,-1.0164 2.05503,-0.906 1.502602,0.11 1.415322,0.9178 1.415322,0.9178 -0.578124,0.3062 -1.118446,0.2814 -1.118446,0.2814 0,0 -1.922258,0.338 -2.351906,-0.2932 z"
       id="path5012"
       inkscape:connector-curvature="0"
       sodipodi:nodetypes="ccccc" />
  </g>
</svg>
