<?xml version="1.0" encoding="UTF-8" standalone="no"?>
<!-- Created with Inkscape (http://www.inkscape.org/) -->

<svg
   xmlns:dc="http://purl.org/dc/elements/1.1/"
   xmlns:cc="http://creativecommons.org/ns#"
   xmlns:rdf="http://www.w3.org/1999/02/22-rdf-syntax-ns#"
   xmlns:svg="http://www.w3.org/2000/svg"
   xmlns="http://www.w3.org/2000/svg"
   xmlns:xlink="http://www.w3.org/1999/xlink"
   xmlns:sodipodi="http://sodipodi.sourceforge.net/DTD/sodipodi-0.dtd"
   xmlns:inkscape="http://www.inkscape.org/namespaces/inkscape"
   width="27"
   height="27"
   id="svg2"
   version="1.1"
   inkscape:version="0.91 r13725"
   sodipodi:docname="wator_icon.svg">
  <defs
     id="defs4">
    <inkscape:perspective
       sodipodi:type="inkscape:persp3d"
       inkscape:vp_x="124.28571 : 427.60966 : 1"
       inkscape:vp_y="0 : 1000 : 0"
       inkscape:vp_z="648.38019 : 466.18109 : 1"
       inkscape:persp3d-origin="276.33295 : 290.78739 : 1"
       id="perspective2985" />
    <linearGradient
       id="RSSg"
       y2="225.94"
       x2="225.94"
       y1="30.059999"
       x1="30.059999"
       gradientUnits="userSpaceOnUse">
      <stop
         id="stop3997"
         stop-color="#E3702D"
         offset="0.0" />
      <stop
         id="stop3999"
         stop-color="#EA7D31"
         offset="0.1071" />
      <stop
         id="stop4001"
         stop-color="#F69537"
         offset="0.3503" />
      <stop
         id="stop4003"
         stop-color="#FB9E3A"
         offset="0.5" />
      <stop
         id="stop4005"
         stop-color="#EA7C31"
         offset="0.7016" />
      <stop
         id="stop4007"
         stop-color="#DE642B"
         offset="0.8866" />
      <stop
         id="stop4009"
         stop-color="#D95B29"
         offset="1.0" />
    </linearGradient>
    <linearGradient
       inkscape:collect="always"
       xlink:href="#RSSg"
       id="linearGradient3799"
       gradientUnits="userSpaceOnUse"
       x1="30.059999"
       y1="30.059999"
       x2="225.94"
       y2="225.94" />
  </defs>
  <sodipodi:namedview
     id="base"
     pagecolor="#ffffff"
     bordercolor="#666666"
     borderopacity="1.0"
     inkscape:pageopacity="0.0"
     inkscape:pageshadow="2"
     inkscape:zoom="32"
     inkscape:cx="-1.9030287"
     inkscape:cy="5.5234193"
     inkscape:document-units="px"
     inkscape:current-layer="layer1"
     showgrid="false"
     inkscape:window-width="3840"
     inkscape:window-height="2037"
     inkscape:window-x="0"
     inkscape:window-y="65"
     inkscape:window-maximized="1"
     units="in"
     showguides="false" />
  <metadata
     id="metadata7">
    <rdf:RDF>
      <cc:Work
         rdf:about="">
        <dc:format>image/svg+xml</dc:format>
        <dc:type
           rdf:resource="http://purl.org/dc/dcmitype/StillImage" />
        <dc:title />
      </cc:Work>
    </rdf:RDF>
  </metadata>
  <g
     inkscape:label="Layer 1"
     inkscape:groupmode="layer"
     id="layer1"
     transform="translate(0,-1025.3568)">
    <path
       style="opacity:1;fill:#56b6ff;fill-opacity:1;fill-rule:nonzero;stroke:none;stroke-width:0.05;stroke-linecap:round;stroke-linejoin:round;stroke-miterlimit:4;stroke-dasharray:none;stroke-opacity:1"
       id="path4921"
       sodipodi:type="arc"
       sodipodi:cx="13.5"
       sodipodi:cy="1039.3982"
       sodipodi:rx="12.664674"
       sodipodi:ry="12.664674"
       sodipodi:start="3.9713047"
       sodipodi:end="3.9697688"
       sodipodi:open="true"
       d="m 4.9502279,1030.055 a 12.664674,12.664674 0 0 1 17.8896871,0.7898 12.664674,12.664674 0 0 1 -0.78297,17.89 12.664674,12.664674 0 0 1 -17.8902887,-0.7761 12.664674,12.664674 0 0 1 0.7692314,-17.8906" />
    <path
       style="fill:#cd4035;fill-opacity:1;fill-rule:evenodd;stroke:#751d1d;stroke-width:0.1;stroke-linecap:butt;stroke-linejoin:miter;stroke-miterlimit:4;stroke-dasharray:none;stroke-opacity:1"
       d="m 9.0927512,1042.7943 c 0,0 -2.59375,3.2813 -3.515625,4.9531 -0.921875,1.6719 -1.328125,2.2344 -1.328125,2.5625 l 0,0.375 c 0,0 2.5703125,-2.1718 3.4296875,-2.9374 0.859375,-0.7657 3.1250003,-3.1798 3.1250003,-3.1798 z"
       id="path4233"
       inkscape:connector-curvature="0"
       sodipodi:nodetypes="ccscccc" />
    <path
       style="fill:#cd4035;fill-opacity:1;fill-rule:evenodd;stroke:#751d1d;stroke-width:0.1;stroke-linecap:butt;stroke-linejoin:miter;stroke-miterlimit:4;stroke-dasharray:none;stroke-opacity:1"
       d="m 13.703001,1027.8693 c 0.78129,0.8523 1.27201,1.5174 1.753411,2.3382 0.481401,0.8207 1.506227,3.0074 1.671955,3.6229 0.165728,0.6156 0.393045,2.6244 0.67715,3.5004 0.146078,0.4504 0.497184,2.4622 0.765506,2.8805 0.268322,0.4183 0.95491,1.1364 2.186033,1.46 1.231124,0.3235 2.249168,0.6708 2.51749,0.4735 0.268321,-0.1973 1.025936,-1.8309 1.878252,-2.699 0.852316,-0.8681 2.509598,-2.3754 2.509598,-2.3754 0,0 -0.828641,2.6043 -1.073287,3.5355 -0.244647,0.9312 -0.481401,2.2097 -0.481401,2.2097 0,0 0.268322,1.4205 0.804965,2.4622 0.536644,1.0418 1.246907,1.9888 1.246907,1.9888 0,0 -1.412635,-0.4262 -2.407004,-1.3653 -0.994369,-0.9391 -2.083439,-2.4623 -2.288627,-2.5806 -0.205187,-0.1184 -2.075547,0.1815 -2.714785,0.505 -0.639237,0.3236 -3.204077,1.3653 -4.135312,1.3338 -0.931234,-0.032 -1.602039,-0.4326 -2.828427,-0.1011 -1.08912,0.1086 -1.859312,-0.096 -2.466981,-0.1831 -0.595445,-0.085 -1.6596216,-0.5943 -2.2593997,-1.3109 -0.5077489,-0.6066 -1.009518,-1.6329 -1.1831379,-2.2484 -0.4344269,-1.2676 -0.2037772,-3.8681 -0.11695,-4.4284 0.086833,-0.5603 -0.1709849,-2.6821 -0.075111,-3.1642 0.087259,-0.4389 0.2687217,-2.5393 0.3969304,-3.4099 0.1957776,-1.3296 0.7448356,-2.4236 3.0324802,-3.7393 0,0 1.808455,0.4428 2.589745,1.2951 z"
       id="path4195"
       inkscape:connector-curvature="0"
       sodipodi:nodetypes="sccsscsscscccsccccsscssscs" />
    <path
       style="fill:#1d0707;fill-opacity:1;fill-rule:evenodd;stroke:#000000;stroke-width:0.1;stroke-linecap:butt;stroke-linejoin:miter;stroke-miterlimit:4;stroke-dasharray:none;stroke-opacity:1"
       d="m 14.393396,1033.6717 c 1.016934,0.5676 1.522962,0.9298 1.792395,1.7389 0.378807,1.2154 0.554331,2.2279 0.483304,2.9382 -0.11394,1.1226 -0.291997,1.3416 -0.797073,2.5017 -0.505077,1.1601 -1.706605,3.7095 -3.314563,3.504 -2.6926881,-0.3441 -3.4906815,-1.8558 -3.8931641,-3.1501 -0.4024827,-1.2943 -0.3721845,-2.1455 -0.3721845,-2.1455 0,0 0.04624,-2.4047 0.2987786,-3.2176 0.2525382,-0.8128 0.4389277,-1.5173 1.0939485,-1.8803 0.6550205,-0.363 1.5152285,-0.4883 2.1386825,-0.5277 0.69448,-0.063 1.662935,-0.2678 2.569876,0.2384 z"
       id="path4197"
       inkscape:connector-curvature="0"
       sodipodi:nodetypes="sccsssccscs" />
    <path
       style="fill:#ffffff;fill-opacity:1;fill-rule:evenodd;stroke:#000000;stroke-width:0.1;stroke-linecap:butt;stroke-linejoin:miter;stroke-miterlimit:4;stroke-dasharray:none;stroke-opacity:1"
       d="m 11.21585,1037.2045 c -0.371094,-2.1641 0.156468,-3.7383 0.156468,-3.7383 0,0 0.980806,1.0409 1.453462,3.5331 0.6875,-1.7617 0.878296,-3.3403 0.878296,-3.3403 0,0 0.599053,2.2467 0.599053,3.5123 1.135723,-1.2003 1.359557,-2.655 1.359557,-2.655 -0.138107,-0.1768 -0.873969,-0.8047 -1.890435,-1.1472 -2.43068,-0.6629 -3.8075279,0.2976 -4.3790461,0.7554 -0.2762135,0.2375 -0.6977744,1.1354 -0.8774619,1.862 0,0 0.448917,0.9616 1.3082918,1.5398 -0.140625,-1.0625 -0.1730286,-3.6107 -0.1730286,-3.6107 0,0 0.9710938,2.8983 1.5648438,3.2889 z"
       id="path4199"
       inkscape:connector-curvature="0"
       sodipodi:nodetypes="cccccccccccc" />
    <path
       style="fill:#ffffff;fill-opacity:1;fill-rule:evenodd;stroke:#000000;stroke-width:0.2;stroke-linecap:butt;stroke-linejoin:miter;stroke-miterlimit:4;stroke-dasharray:none;stroke-opacity:1"
       d="m 9.9825217,1041.7767 c -0.1049612,0.7016 0.3368183,1.7854 0.3368183,1.7854 0,0 0.458677,-0.6119 0.944813,-1.1201 -0.08286,0.7789 0.568837,1.761 0.568837,1.761 0,0 0.324199,-0.023 0.556218,-1.3159 0.497184,0.569 1.255744,0.99 1.255744,0.99 0,0 0.730448,-1.0237 0.56472,-2.1838 0.767874,0.3812 0.855017,0.637 0.855017,0.637 0,0 -0.232019,0.9999 -1.447359,1.7843 -1.618612,0.5634 -3.010728,-0.1934 -3.010728,-0.1934 l -1.3700196,-1.1878 c 0,0 0.011211,-0.4485 0.7459393,-0.9567 z"
       id="path4231"
       inkscape:connector-curvature="0"
       sodipodi:nodetypes="cccccccccccc" />
    <path
       style="fill:#cd4035;fill-opacity:1;fill-rule:evenodd;stroke:#751d1d;stroke-width:0.1;stroke-linecap:butt;stroke-linejoin:miter;stroke-miterlimit:4;stroke-dasharray:none;stroke-opacity:1"
       d="m 18.467751,1042.4349 c 0,0 2.703125,2.8907 3.90625,4.375 1.203125,1.4844 2.71875,4.125 2.71875,4.125 0,0 -3.6875,-3.5312 -4.742188,-4.5781 -1.793414,-1.7801 -3.609375,-2.4687 -3.609375,-2.4687"
       id="path4235"
       inkscape:connector-curvature="0"
       sodipodi:nodetypes="cccsc" />
    <g
       id="g4851"
       transform="matrix(0.45443353,0,0.00292176,0.69538192,10.821466,313.93462)">
      <path
         inkscape:connector-curvature="0"
         id="path4138"
         d="m -22.887403,1052.0545 2.209709,-5.0602 -5.966214,-8.2422 2.778972,-1.6892 9.816367,4.4071 2.894719,8.9935 -5.08233,1.5026 z"
         style="fill:#292929;fill-opacity:1;fill-rule:evenodd;stroke:none;stroke-width:1px;stroke-linecap:butt;stroke-linejoin:miter;stroke-opacity:1"
         sodipodi:nodetypes="cccccccc" />
      <path
         sodipodi:nodetypes="ccccc"
         inkscape:connector-curvature="0"
         id="path4140"
         d="m -20.920762,1052.2755 c 0,0 0.37565,-1.7898 1.149049,-2.7621 0.839689,-0.8397 1.370019,-1.1269 3.049397,-1.4142 1.579941,0.055 3.027301,2.4748 3.027301,2.4748 z"
         style="fill:#a0008f;fill-opacity:1;fill-rule:evenodd;stroke:none;stroke-width:1px;stroke-linecap:butt;stroke-linejoin:miter;stroke-opacity:1" />
      <path
         sodipodi:nodetypes="sccccscssscscccssccscsc"
         inkscape:connector-curvature="0"
         id="path4144"
         d="m -22.457516,1034.1511 c -0.0692,2e-4 -0.862245,0.018 -0.927045,0.018 -4.14162,0.303 -6.563415,4.4171 -6.60077,5.8833 0,0 5.104695,1.9778 8.337175,6.8266 -0.40406,1.9192 -3.03046,4.1414 -3.03046,4.1414 0,0 3.93938,4.2426 8.18202,3.2324 4.24264,-1.0102 10.8086001,-9.0912 10.8086001,-9.0912 0,0 2.4794,3.1934 3.40848,1.3002 0.74188,-1.5114 0.1292,-8.1332 -0.8407,-8.531 -1.5509,-0.6362 -3.64026,3.8714 -4.17832,3.5282 -3.8494601,-2.4554 -10.9253881,-7.1031 -15.1589801,-7.3156 z m 0.243287,5.2304 c 3.067892,0.026 3.890305,0.6498 5.800979,2.3212 l 1.533074,2.7594 1.944935,4.9302 c 0,0 -0.777424,-0.1113 -2.898744,-0.1113 -2.12132,0 -2.270803,1.7683 -3.887043,1.7683 -1.61624,0 -2.372634,-0.1332 -2.372634,-0.1332 l 2.020174,-3.9718 c 0,0 -0.532456,-1.5889 -2.148696,-3.6093 -1.61624,-2.0202 -2.985374,-2.8048 -2.985374,-2.8048 0,0 1.430749,-1.1629 2.993329,-1.1487 z"
         style="fill:#0ebf00;fill-opacity:1;fill-rule:evenodd;stroke:#0f670f;stroke-width:0.57796675;stroke-linecap:butt;stroke-linejoin:miter;stroke-miterlimit:4;stroke-dasharray:none;stroke-opacity:0.89355744" />
      <path
         sodipodi:nodetypes="cccccc"
         inkscape:connector-curvature="0"
         id="path4143"
         d="m -21.78624,1038.1629 c 2.31525,0.2388 4.797668,1.2025 6.028793,2.2864 0,0 0.367052,-2.802 -1.507198,-3.794 -0.790125,-0.3492 -1.660952,-0.3337 -2.928828,-0.059 -1.35975,0.2023 -1.592767,1.566 -1.592767,1.566 z"
         style="fill:#ffffff;fill-opacity:1;fill-rule:evenodd;stroke:none;stroke-width:1px;stroke-linecap:butt;stroke-linejoin:miter;stroke-opacity:1" />
      <path
         sodipodi:nodetypes="ccccc"
         inkscape:connector-curvature="0"
         id="path4145"
         d="m -25.96622,1039.9654 c 0.859947,-1.279 2.978165,-1.6421 2.978165,-1.6421 0,0 -0.220514,-1.0141 -1.653753,-1.1686 -0.595347,0 -1.345047,0.086 -1.9404,1.3893 -0.214101,0.5563 0.233375,1.068 0.615988,1.4214 z"
         style="fill:#ffffff;fill-opacity:1;fill-rule:evenodd;stroke:none;stroke-width:1px;stroke-linecap:butt;stroke-linejoin:miter;stroke-opacity:1" />
      <path
         inkscape:connector-curvature="0"
         id="path4143-4"
         d="m -18.624634,1037.5507 a 1.1208749,1.120875 0 0 0 -0.712032,0.294 1.1208749,1.120875 0 0 0 -0.358312,0.7121 c 0.731503,0.1975 1.41075,0.4558 2.044219,0.744 a 1.1208749,1.120875 0 0 0 -0.101064,-1.3872 1.1208749,1.120875 0 0 0 -0.872811,-0.3629 z"
         style="fill:#000000;fill-opacity:1;fill-rule:evenodd;stroke:none;stroke-width:1px;stroke-linecap:butt;stroke-linejoin:miter;stroke-opacity:1" />
      <path
         inkscape:connector-curvature="0"
         id="path4145-1"
         d="m -24.877459,1038.154 c -0.182303,0.01 -0.355921,0.08 -0.490611,0.2034 l -0.02766,0.029 c -0.215766,0.2147 -0.1432,0.7247 -0.0383,1.0105 0.563145,-0.4396 0.972248,-0.6179 1.552341,-0.8236 -0.225725,-0.2007 -0.556392,-0.3811 -0.995863,-0.4145 z"
         style="fill:#000000;fill-opacity:1;fill-rule:evenodd;stroke:none;stroke-width:1px;stroke-linecap:butt;stroke-linejoin:miter;stroke-opacity:1"
         sodipodi:nodetypes="ccccccc" />
    </g>
    <path
       style="fill:#ffffff;fill-opacity:1;fill-rule:evenodd;stroke:#000000;stroke-width:0.08639999;stroke-linecap:butt;stroke-linejoin:miter;stroke-miterlimit:4;stroke-dasharray:none;stroke-opacity:1"
       d="m 9.4511889,1028.3239 c 0.074251,0.9921 1.1789001,2.0107 1.1789001,2.0107 0,0 -0.47862,0.2585 -1.2076202,0.017 -0.3442501,-0.1625 -0.4989039,-0.3328 -0.519154,-0.5083 -0.020251,-0.9045 0.5478741,-1.5197 0.5478741,-1.5197 z"
       id="path4860"
       inkscape:connector-curvature="0"
       sodipodi:nodetypes="ccccc" />
    <path
       style="fill:#ffffff;fill-opacity:1;fill-rule:evenodd;stroke:#000000;stroke-width:0.08639999;stroke-linecap:butt;stroke-linejoin:miter;stroke-miterlimit:4;stroke-dasharray:none;stroke-opacity:1"
       d="m 13.285017,1028.1527 c -0.07424,0.9923 -1.165399,1.9635 -1.165399,1.9635 0,0 0.47862,0.2585 1.20762,0.017 0.344249,-0.1624 0.498903,-0.3329 0.519154,-0.5085 0.02024,-0.9044 -0.561375,-1.4722 -0.561375,-1.4722 z"
       id="path4860-0"
       inkscape:connector-curvature="0"
       sodipodi:nodetypes="ccccc" />
    <path
       style="fill:#000000;fill-opacity:1;fill-rule:evenodd;stroke:#000000;stroke-width:0.08639999;stroke-linecap:butt;stroke-linejoin:miter;stroke-miterlimit:4;stroke-dasharray:none;stroke-opacity:1"
       d="m 9.8905555,1029.6529 a 0.6885,0.46237499 0 0 0 -0.4353752,0.1209 l -0.00337,0 a 0.6885,0.46237499 0 0 0 -0.1856249,0.486 c 0.047477,0.028 0.070286,0.058 0.1282507,0.085 0.6285659,0.208 1.0037759,0.059 1.1137499,0.017 a 0.6885,0.46237499 0 0 0 0.05062,-0.074 c -0.0373,-0.035 -0.267858,-0.2544 -0.54,-0.6208 a 0.6885,0.46237499 0 0 0 -0.1282508,0 z"
       id="path4860-09"
       inkscape:connector-curvature="0" />
    <path
       style="fill:#000000;fill-opacity:1;fill-rule:evenodd;stroke:#000000;stroke-width:0.08639999;stroke-linecap:butt;stroke-linejoin:miter;stroke-miterlimit:4;stroke-dasharray:none;stroke-opacity:1"
       d="m 12.7047,1029.4964 c -0.287479,0.3782 -0.567,0.6347 -0.567,0.6347 0,0 0.479251,0.2581 1.208251,0.017 0.08659,-0.042 0.128894,-0.084 0.192374,-0.1239 a 0.80325,0.50287499 0 0 0 -0.20925,-0.3612 0.80325,0.50287499 0 0 0 -0.624375,-0.1658 z"
       id="path4860-0-9"
       inkscape:connector-curvature="0" />
  </g>
</svg>
