<?xml version="1.0" encoding="UTF-8" standalone="no"?>
<!-- Created with Inkscape (http://www.inkscape.org/) -->

<svg
   xmlns:dc="http://purl.org/dc/elements/1.1/"
   xmlns:cc="http://creativecommons.org/ns#"
   xmlns:rdf="http://www.w3.org/1999/02/22-rdf-syntax-ns#"
   xmlns:svg="http://www.w3.org/2000/svg"
   xmlns="http://www.w3.org/2000/svg"
   xmlns:xlink="http://www.w3.org/1999/xlink"
   xmlns:sodipodi="http://sodipodi.sourceforge.net/DTD/sodipodi-0.dtd"
   xmlns:inkscape="http://www.inkscape.org/namespaces/inkscape"
   width="27"
   height="27"
   id="svg2"
   version="1.1"
   inkscape:version="0.91 r13725"
   sodipodi:docname="wator_icon.svg">
  <defs
     id="defs4">
    <inkscape:perspective
       sodipodi:type="inkscape:persp3d"
       inkscape:vp_x="124.28571 : 427.60966 : 1"
       inkscape:vp_y="0 : 1000 : 0"
       inkscape:vp_z="648.38019 : 466.18109 : 1"
       inkscape:persp3d-origin="276.33295 : 290.78739 : 1"
       id="perspective2985" />
    <linearGradient
       id="RSSg"
       y2="225.94"
       x2="225.94"
       y1="30.059999"
       x1="30.059999"
       gradientUnits="userSpaceOnUse">
      <stop
         id="stop3997"
         stop-color="#E3702D"
         offset="0.0" />
      <stop
         id="stop3999"
         stop-color="#EA7D31"
         offset="0.1071" />
      <stop
         id="stop4001"
         stop-color="#F69537"
         offset="0.3503" />
      <stop
         id="stop4003"
         stop-color="#FB9E3A"
         offset="0.5" />
      <stop
         id="stop4005"
         stop-color="#EA7C31"
         offset="0.7016" />
      <stop
         id="stop4007"
         stop-color="#DE642B"
         offset="0.8866" />
      <stop
         id="stop4009"
         stop-color="#D95B29"
         offset="1.0" />
    </linearGradient>
    <linearGradient
       inkscape:collect="always"
       xlink:href="#RSSg"
       id="linearGradient3799"
       gradientUnits="userSpaceOnUse"
       x1="30.059999"
       y1="30.059999"
       x2="225.94"
       y2="225.94" />
  </defs>
  <sodipodi:namedview
     id="base"
     pagecolor="#ffffff"
     bordercolor="#666666"
     borderopacity="1.0"
     inkscape:pageopacity="0.0"
     inkscape:pageshadow="2"
     inkscape:zoom="64"
     inkscape:cx="8.3513532"
     inkscape:cy="14.061732"
     inkscape:document-units="px"
     inkscape:current-layer="layer1"
     showgrid="false"
     inkscape:window-width="3840"
     inkscape:window-height="2037"
     inkscape:window-x="0"
     inkscape:window-y="65"
     inkscape:window-maximized="1"
     units="in" />
  <metadata
     id="metadata7">
    <rdf:RDF>
      <cc:Work
         rdf:about="">
        <dc:format>image/svg+xml</dc:format>
        <dc:type
           rdf:resource="http://purl.org/dc/dcmitype/StillImage" />
        <dc:title />
      </cc:Work>
    </rdf:RDF>
  </metadata>
  <g
     inkscape:label="Layer 1"
     inkscape:groupmode="layer"
     id="layer1"
     transform="translate(0,-1025.3568)">
    <path
       style="opacity:1;fill:#1a9dff;fill-opacity:1;fill-rule:nonzero;stroke:none;stroke-width:0.05;stroke-linecap:round;stroke-linejoin:round;stroke-miterlimit:4;stroke-dasharray:none;stroke-opacity:1"
       id="path4921"
       sodipodi:type="arc"
       sodipodi:cx="13.5"
       sodipodi:cy="1038.8568"
       sodipodi:rx="11.515625"
       sodipodi:ry="11.515625"
       sodipodi:start="3.9713047"
       sodipodi:end="3.9697688"
       sodipodi:open="true"
       d="m 5.7259372,1030.3613 a 11.515625,11.515625 0 0 1 16.2665798,0.7182 11.515625,11.515625 0 0 1 -0.711932,16.2668 11.515625,11.515625 0 0 1 -16.267127,-0.7056 11.515625,11.515625 0 0 1 0.6994401,-16.2674" />
    <path
       style="fill:#9b2626;fill-rule:evenodd;stroke:#751d1d;stroke-width:0.1;stroke-linecap:butt;stroke-linejoin:miter;stroke-miterlimit:4;stroke-dasharray:none;stroke-opacity:1;fill-opacity:1"
       d="m 10.969625,1027.9474 c 0.78129,0.8523 1.412635,1.7362 1.894036,2.557 0.481401,0.8207 1.396852,3.0699 1.56258,3.6854 0.165728,0.6156 1.018045,2.265 1.30215,3.141 0.146078,0.4504 0.497184,2.4622 0.765506,2.8805 0.268322,0.4183 0.95491,1.1364 2.186033,1.46 1.231124,0.3235 2.249168,0.6708 2.51749,0.4735 0.268321,-0.1973 1.025936,-1.8309 1.878252,-2.699 0.852316,-0.8681 2.509598,-2.3754 2.509598,-2.3754 0,0 -0.828641,2.6043 -1.073287,3.5355 -0.244647,0.9312 -0.481401,2.2097 -0.481401,2.2097 0,0 0.268322,1.4205 0.804965,2.4622 0.536644,1.0418 1.246907,1.9888 1.246907,1.9888 0,0 -1.412635,-0.4262 -2.407004,-1.3653 -0.994369,-0.9391 -2.083439,-2.4623 -2.288627,-2.5806 -0.205187,-0.1184 -2.075547,0.1815 -2.714785,0.505 -0.639237,0.3236 -3.204077,1.3653 -4.135312,1.3338 -0.931234,-0.032 -2.872621,-0.4657 -2.872621,-0.4657 -1.16646,-0.035 -1.8151179,0.2683 -2.4227876,0.1815 -0.5954446,-0.085 -1.3337171,-0.3787 -1.7125243,-1.0732 -0.3788072,-0.6945 -0.947018,-1.8862 -1.1206379,-2.5017 -0.17362,-0.6156 -0.063135,-3.9775 0.023675,-4.5378 0.08681,-0.5603 0.2040151,-2.6509 0.2998891,-3.133 0.087259,-0.4389 -0.205303,-1.2648 -0.1499446,-1.9099 0.05499,-0.6408 0.7655063,-2.9436 2.4543554,-5.1455 0,0 1.1522049,0.5209 1.9334949,1.3732 z"
       id="path4195"
       inkscape:connector-curvature="0"
       sodipodi:nodetypes="sccsscsscscccsccccsscssscs" />
    <path
       style="fill:#1d0707;fill-rule:evenodd;stroke:#000000;stroke-width:0.1;stroke-linecap:butt;stroke-linejoin:miter;stroke-miterlimit:4;stroke-dasharray:none;stroke-opacity:1;fill-opacity:1"
       d="m 12.03502,1033.9373 c 0.907559,0.5051 1.507337,0.7892 1.886145,2.0045 0.378807,1.2154 0.741831,1.6967 0.670804,2.407 -0.11394,1.1226 -0.291997,1.3416 -0.797073,2.5017 -0.505077,1.1601 -1.704633,3.6934 -3.314563,3.504 -1.609931,-0.1894 -2.9594317,-1.9808 -3.3619143,-3.2751 -0.4024827,-1.2943 -0.4971845,-2.0361 -0.4971845,-2.0361 0,0 -0.063135,-2.186 0.1894036,-2.9989 0.2525382,-0.8128 0.1420527,-1.7204 0.7970735,-2.0834 0.6550208,-0.363 1.5152289,-0.3789 2.1386824,-0.4183 0.6944803,-0.063 1.3810683,-0.1105 2.2886263,0.3946 z"
       id="path4197"
       inkscape:connector-curvature="0"
       sodipodi:nodetypes="sccsssccscs" />
    <path
       style="fill:#ffffff;fill-opacity:1;fill-rule:evenodd;stroke:#000000;stroke-width:0.1;stroke-linecap:butt;stroke-linejoin:miter;stroke-miterlimit:4;stroke-dasharray:none;stroke-opacity:1"
       d="m 9.1387238,1037.2045 c -0.3710938,-2.1641 0.1564681,-3.7383 0.1564681,-3.7383 0,0 0.9808061,1.0409 1.4534621,3.5331 0.6875,-1.7617 0.878296,-3.3403 0.878296,-3.3403 0,0 0.599053,2.2467 0.599053,3.5123 1.135723,-1.2003 1.125182,-2.3738 1.125182,-2.3738 -0.138107,-0.1768 -0.702094,-0.7734 -1.71856,-1.1159 -2.4306798,-0.6629 -3.8465906,-0.054 -4.2774838,0.4429 -0.2762135,0.2375 -0.5415244,1.8776 -0.5415244,1.8776 0,0 0.073917,0.946 0.9332918,1.5242 -0.140625,-1.0625 -0.1730286,-3.6107 -0.1730286,-3.6107 0,0 0.9710938,2.8983 1.5648438,3.2889 z"
       id="path4199"
       inkscape:connector-curvature="0"
       sodipodi:nodetypes="cccccccccccc" />
    <path
       style="fill:#ffffff;fill-opacity:1;fill-rule:evenodd;stroke:#000000;stroke-width:0.2;stroke-linecap:butt;stroke-linejoin:miter;stroke-miterlimit:4;stroke-dasharray:none;stroke-opacity:1"
       d="m 8.1705605,1041.2464 c -0.1049612,0.7016 0.2926238,1.8959 0.2926238,1.8959 0,0 0.1935122,-0.4573 0.6796481,-0.9655 -0.082864,0.7789 0.5246432,1.8273 0.5246432,1.8273 0,0 0.4125874,0.1757 0.6446064,-1.117 0.497184,0.569 1.255744,0.99 1.255744,0.99 0,0 0.730448,-1.0237 0.56472,-2.1838 0.767874,0.3812 0.855017,0.637 0.855017,0.637 0,0 -0.430893,0.9999 -1.646233,1.7843 -1.6186117,0.5634 -2.6571748,-0.6574 -2.6571748,-0.6574 l -0.9722718,-1.1657 c 0,0 -0.276051,-0.5369 0.4586771,-1.0451 z"
       id="path4231"
       inkscape:connector-curvature="0"
       sodipodi:nodetypes="cccccccccccc" />
    <path
       style="fill:#9b2626;fill-rule:evenodd;stroke:#751d1d;stroke-width:0.1;stroke-linecap:butt;stroke-linejoin:miter;stroke-opacity:1;fill-opacity:1;stroke-miterlimit:4;stroke-dasharray:none"
       d="m 7.015625,1042.7943 c 0,0 -2.59375,3.2813 -3.515625,4.9531 -0.921875,1.6719 -1.328125,2.2344 -1.328125,2.5625 0,0.3282 0,0.375 0,0.375 0,0 1.765625,-1.9687 2.625,-2.7343 0.859375,-0.7657 3.359375,-3.5157 3.359375,-3.5157 z"
       id="path4233"
       inkscape:connector-curvature="0" />
    <path
       style="fill:#9b2626;fill-opacity:1;fill-rule:evenodd;stroke:#751d1d;stroke-width:0.1;stroke-linecap:butt;stroke-linejoin:miter;stroke-miterlimit:4;stroke-dasharray:none;stroke-opacity:1"
       d="m 16.390625,1042.4349 c 0,0 2.703125,2.8907 3.90625,4.375 1.203125,1.4844 2.71875,4.125 2.71875,4.125 0,0 -2.46875,-2.4218 -4.109375,-4.3437 -1.640625,-1.9219 -3.734375,-3.0156 -3.734375,-3.0156"
       id="path4235"
       inkscape:connector-curvature="0"
       sodipodi:nodetypes="cccsc" />
    <g
       id="g4851"
       transform="matrix(0.33453835,0,0,0.41000895,12.049598,612.10887)">
      <path
         inkscape:connector-curvature="0"
         id="path4138"
         d="m -22.887403,1052.0545 2.209709,-5.0602 -5.966214,-8.2422 2.320194,-1.2816 10.275145,3.9995 2.894719,8.9935 -5.08233,1.5026 z"
         style="fill:#292929;fill-opacity:1;fill-rule:evenodd;stroke:none;stroke-width:1px;stroke-linecap:butt;stroke-linejoin:miter;stroke-opacity:1" />
      <path
         sodipodi:nodetypes="ccccc"
         inkscape:connector-curvature="0"
         id="path4140"
         d="m -20.920762,1052.2755 c 0,0 0.37565,-1.7898 1.149049,-2.7621 0.839689,-0.8397 1.370019,-1.1269 3.049397,-1.4142 1.579941,0.055 3.027301,2.4748 3.027301,2.4748 z"
         style="fill:#a0008f;fill-opacity:1;fill-rule:evenodd;stroke:none;stroke-width:1px;stroke-linecap:butt;stroke-linejoin:miter;stroke-opacity:1" />
      <path
         sodipodi:nodetypes="cccccscssscsscccssccscs"
         inkscape:connector-curvature="0"
         id="path4144"
         d="m -21.878903,1034.2543 c -0.0692,2e-4 -0.136,0 -0.2008,0 -4.14162,0.303 -5.96014,6.263 -5.96014,6.263 0,0 3.73782,1.6164 6.9703,6.4652 -0.40406,1.9192 -3.03046,4.1414 -3.03046,4.1414 0,0 3.93938,4.2426 8.18202,3.2324 4.24264,-1.0102 10.8085997,-9.0912 10.8085997,-9.0912 0,0 2.4794,3.1934 3.40848,1.3002 0.74188,-1.5114 0.1292,-8.1332 -0.8407,-8.531 -1.5509,-0.6362 -3.64026,3.8714 -4.17832,3.5282 -3.8494597,-2.4554 -11.9014197,-7.3282 -15.1589797,-7.3156 z m -2.14844,4.1316 c 0.52086,0 1.1898,0.094 2.04844,0.3208 3.4345,0.9092 6.566,3.0304 6.566,3.0304 l 1.11134,2.8282 2.62616,5.455 c 0,0 -1.00992,-0.8082 -3.13124,-0.8082 -2.12132,0 -3.13142,2.5254 -4.74766,2.5254 -1.61624,0 -3.03046,-0.202 -3.03046,-0.202 l 2.32342,-4.0406 c 0,0 -1.71734,-3.6366 -3.33358,-5.657 -1.61624,-2.0202 -2.22228,-2.7274 -2.22228,-2.7274 0,0 0.22728,-0.7388 1.78986,-0.7246 z"
         style="fill:#098b00;fill-opacity:1;fill-rule:evenodd;stroke:#000000;stroke-width:0.2px;stroke-linecap:butt;stroke-linejoin:miter;stroke-opacity:1" />
      <path
         sodipodi:nodetypes="cccccc"
         inkscape:connector-curvature="0"
         id="path4143"
         d="m -21.362704,1037.4926 c 0.984375,0.1016 2.039825,0.5113 2.563262,0.9722 0,0 0.15606,-1.1913 -0.640815,-1.6131 -0.335938,-0.1485 -0.706187,-0.1419 -1.24525,-0.025 -0.578125,0.086 -0.677197,0.6658 -0.677197,0.6658 z"
         style="fill:#ffffff;fill-opacity:1;fill-rule:evenodd;stroke:none;stroke-width:1px;stroke-linecap:butt;stroke-linejoin:miter;stroke-opacity:1" />
      <path
         sodipodi:nodetypes="ccccc"
         inkscape:connector-curvature="0"
         id="path4145"
         d="m -25.99114,1038.3496 c 0.304687,-0.4531 1.265625,-0.6641 1.265625,-0.6641 0,0 -0.07813,-0.3593 -0.585938,-0.414 -0.210937,0 -0.476562,0.031 -0.6875,0.4922 -0.117187,0.25 0.0078,0.5859 0.0078,0.5859 z"
         style="fill:#ffffff;fill-opacity:1;fill-rule:evenodd;stroke:none;stroke-width:1px;stroke-linecap:butt;stroke-linejoin:miter;stroke-opacity:1" />
      <path
         inkscape:connector-curvature="0"
         id="path4143-4"
         d="m -20.018483,1037.2324 a 0.47656247,0.4765625 0 0 0 -0.302735,0.125 0.47656247,0.4765625 0 0 0 -0.152344,0.3027 c 0.311013,0.084 0.599809,0.1938 0.869141,0.3164 a 0.47656247,0.4765625 0 0 0 -0.04297,-0.5898 0.47656247,0.4765625 0 0 0 -0.371093,-0.1543 z"
         style="fill:#000000;fill-opacity:1;fill-rule:evenodd;stroke:none;stroke-width:1px;stroke-linecap:butt;stroke-linejoin:miter;stroke-opacity:1" />
      <path
         inkscape:connector-curvature="0"
         id="path4145-1"
         d="m -25.343714,1037.6378 a 0.27621346,0.27621348 0 0 0 -0.173828,0.072 l -0.0098,0.01 a 0.27621346,0.27621348 0 0 0 -0.06445,0.291 c 0.19925,-0.1127 0.336734,-0.1652 0.505859,-0.2187 a 0.27621346,0.27621348 0 0 0 -0.04492,-0.065 0.27621346,0.27621348 0 0 0 -0.212891,-0.088 z"
         style="fill:#000000;fill-opacity:1;fill-rule:evenodd;stroke:none;stroke-width:1px;stroke-linecap:butt;stroke-linejoin:miter;stroke-opacity:1" />
    </g>
    <path
       style="fill:#ffffff;fill-opacity:1;fill-rule:evenodd;stroke:#000000;stroke-width:0.05;stroke-linecap:butt;stroke-linejoin:miter;stroke-miterlimit:4;stroke-dasharray:none;stroke-opacity:1"
       d="m 8.0289401,1028.619 c 0.042969,0.5742 0.6822337,1.1636 0.6822337,1.1636 0,0 -0.2769791,0.1496 -0.6988541,0.01 -0.1992188,-0.094 -0.2887175,-0.1926 -0.3004363,-0.2942 -0.011719,-0.5234 0.3170567,-0.8794 0.3170567,-0.8794 z"
       id="path4860"
       inkscape:connector-curvature="0"
       sodipodi:nodetypes="ccccc" />
    <path
       style="fill:#ffffff;fill-opacity:1;fill-rule:evenodd;stroke:#000000;stroke-width:0.05;stroke-linecap:butt;stroke-linejoin:miter;stroke-miterlimit:4;stroke-dasharray:none;stroke-opacity:1"
       d="m 11.042863,1028.3018 c -0.04297,0.5742 -0.674421,1.1362 -0.674421,1.1362 0,0 0.276979,0.1496 0.698854,0.01 0.199218,-0.094 0.288717,-0.1926 0.300436,-0.2942 0.01172,-0.5234 -0.324869,-0.852 -0.324869,-0.852 z"
       id="path4860-0"
       inkscape:connector-curvature="0"
       sodipodi:nodetypes="ccccc" />
    <path
       style="fill:#000000;fill-opacity:1;fill-rule:evenodd;stroke:#000000;stroke-width:0.05;stroke-linecap:butt;stroke-linejoin:miter;stroke-miterlimit:4;stroke-dasharray:none;stroke-opacity:1"
       d="m 8.2832032,1029.3881 a 0.3984375,0.26757812 0 0 0 -0.2519532,0.07 l -0.00195,0 a 0.3984375,0.26757812 0 0 0 -0.1074219,0.2812 c 0.027475,0.016 0.040675,0.033 0.074219,0.049 0.3637536,0.1204 0.5808888,0.034 0.6445312,0.01 a 0.3984375,0.26757812 0 0 0 0.029297,-0.043 c -0.021584,-0.02 -0.1550103,-0.1472 -0.3125,-0.3593 a 0.3984375,0.26757812 0 0 0 -0.074219,-0 z"
       id="path4860-09"
       inkscape:connector-curvature="0" />
    <path
       style="fill:#000000;fill-opacity:1;fill-rule:evenodd;stroke:#000000;stroke-width:0.05;stroke-linecap:butt;stroke-linejoin:miter;stroke-miterlimit:4;stroke-dasharray:none;stroke-opacity:1"
       d="m 10.707031,1029.0794 c -0.166366,0.2188 -0.328125,0.3672 -0.328125,0.3672 0,0 0.277344,0.1494 0.699219,0.01 0.05011,-0.024 0.07459,-0.048 0.111328,-0.072 a 0.46484375,0.29101562 0 0 0 -0.121094,-0.209 0.46484375,0.29101562 0 0 0 -0.361328,-0.096 z"
       id="path4860-0-9"
       inkscape:connector-curvature="0" />
  </g>
</svg>
