<?xml version="1.0" encoding="UTF-8" standalone="no"?>
<!-- Created with Inkscape (http://www.inkscape.org/) -->

<svg
   xmlns:dc="http://purl.org/dc/elements/1.1/"
   xmlns:cc="http://creativecommons.org/ns#"
   xmlns:rdf="http://www.w3.org/1999/02/22-rdf-syntax-ns#"
   xmlns:svg="http://www.w3.org/2000/svg"
   xmlns="http://www.w3.org/2000/svg"
   xmlns:xlink="http://www.w3.org/1999/xlink"
   xmlns:sodipodi="http://sodipodi.sourceforge.net/DTD/sodipodi-0.dtd"
   xmlns:inkscape="http://www.inkscape.org/namespaces/inkscape"
   width="27"
   height="27"
   id="svg2"
   version="1.1"
   inkscape:version="0.91 r13725"
   sodipodi:docname="wator_icon.svg">
  <defs
     id="defs4">
    <inkscape:perspective
       sodipodi:type="inkscape:persp3d"
       inkscape:vp_x="124.28571 : 427.60966 : 1"
       inkscape:vp_y="0 : 1000 : 0"
       inkscape:vp_z="648.38019 : 466.18109 : 1"
       inkscape:persp3d-origin="276.33295 : 290.78739 : 1"
       id="perspective2985" />
    <linearGradient
       id="RSSg"
       y2="225.94"
       x2="225.94"
       y1="30.059999"
       x1="30.059999"
       gradientUnits="userSpaceOnUse">
      <stop
         id="stop3997"
         stop-color="#E3702D"
         offset="0.0" />
      <stop
         id="stop3999"
         stop-color="#EA7D31"
         offset="0.1071" />
      <stop
         id="stop4001"
         stop-color="#F69537"
         offset="0.3503" />
      <stop
         id="stop4003"
         stop-color="#FB9E3A"
         offset="0.5" />
      <stop
         id="stop4005"
         stop-color="#EA7C31"
         offset="0.7016" />
      <stop
         id="stop4007"
         stop-color="#DE642B"
         offset="0.8866" />
      <stop
         id="stop4009"
         stop-color="#D95B29"
         offset="1.0" />
    </linearGradient>
    <linearGradient
       inkscape:collect="always"
       xlink:href="#RSSg"
       id="linearGradient3799"
       gradientUnits="userSpaceOnUse"
       x1="30.059999"
       y1="30.059999"
       x2="225.94"
       y2="225.94" />
  </defs>
  <sodipodi:namedview
     id="base"
     pagecolor="#ffffff"
     bordercolor="#666666"
     borderopacity="1.0"
     inkscape:pageopacity="0.0"
     inkscape:pageshadow="2"
     inkscape:zoom="45.254834"
     inkscape:cx="3.1760489"
     inkscape:cy="15.665759"
     inkscape:document-units="px"
     inkscape:current-layer="layer1"
     showgrid="false"
     inkscape:window-width="3840"
     inkscape:window-height="2037"
     inkscape:window-x="0"
     inkscape:window-y="65"
     inkscape:window-maximized="1"
     units="in"
     showguides="false" />
  <metadata
     id="metadata7">
    <rdf:RDF>
      <cc:Work
         rdf:about="">
        <dc:format>image/svg+xml</dc:format>
        <dc:type
           rdf:resource="http://purl.org/dc/dcmitype/StillImage" />
        <dc:title />
      </cc:Work>
    </rdf:RDF>
  </metadata>
  <g
     inkscape:label="Layer 1"
     inkscape:groupmode="layer"
     id="layer1"
     transform="translate(0,-1025.3568)">
    <path
       style="opacity:1;fill:#0088ef;fill-opacity:1;fill-rule:nonzero;stroke:none;stroke-width:0.05;stroke-linecap:round;stroke-linejoin:round;stroke-miterlimit:4;stroke-dasharray:none;stroke-opacity:1"
       id="path4921"
       sodipodi:type="arc"
       sodipodi:cx="13.5"
       sodipodi:cy="1038.8568"
       sodipodi:rx="12.664674"
       sodipodi:ry="12.664674"
       sodipodi:start="3.9713047"
       sodipodi:end="3.9697688"
       sodipodi:open="true"
       d="m 4.9502279,1029.5136 a 12.664674,12.664674 0 0 1 17.8896871,0.7899 12.664674,12.664674 0 0 1 -0.78297,17.8899 12.664674,12.664674 0 0 1 -17.8902887,-0.7761 12.664674,12.664674 0 0 1 0.7692314,-17.8905" />
    <path
       style="fill:#cd4035;fill-opacity:1;fill-rule:evenodd;stroke:#751d1d;stroke-width:0.1;stroke-linecap:butt;stroke-linejoin:miter;stroke-miterlimit:4;stroke-dasharray:none;stroke-opacity:1"
       d="m 7.5901493,1042.7943 c 0,0 -2.59375,3.2813 -3.515625,4.9531 -0.921875,1.6719 -1.328125,2.2344 -1.328125,2.5625 0,0.3282 0,0.375 0,0.375 0,0 1.765625,-1.9687 2.625,-2.7343 0.859375,-0.7657 3.359375,-3.5157 3.359375,-3.5157 z"
       id="path4233"
       inkscape:connector-curvature="0" />
    <path
       style="fill:#cd4035;fill-opacity:1;fill-rule:evenodd;stroke:#751d1d;stroke-width:0.1;stroke-linecap:butt;stroke-linejoin:miter;stroke-miterlimit:4;stroke-dasharray:none;stroke-opacity:1"
       d="m 12.200399,1027.8693 c 0.78129,0.8523 1.27201,1.5174 1.753411,2.3382 0.481401,0.8207 1.506227,3.0074 1.671955,3.6229 0.165728,0.6156 0.393045,2.6244 0.67715,3.5004 0.146078,0.4504 0.497184,2.4622 0.765506,2.8805 0.268322,0.4183 0.95491,1.1364 2.186033,1.46 1.231124,0.3235 2.249168,0.6708 2.51749,0.4735 0.268321,-0.1973 1.025936,-1.8309 1.878252,-2.699 0.852316,-0.8681 2.509598,-2.3754 2.509598,-2.3754 0,0 -0.828641,2.6043 -1.073287,3.5355 -0.244647,0.9312 -0.481401,2.2097 -0.481401,2.2097 0,0 0.268322,1.4205 0.804965,2.4622 0.536644,1.0418 1.246907,1.9888 1.246907,1.9888 0,0 -1.412635,-0.4262 -2.407004,-1.3653 -0.994369,-0.9391 -2.083439,-2.4623 -2.288627,-2.5806 -0.205187,-0.1184 -2.075547,0.1815 -2.714785,0.505 -0.639237,0.3236 -3.204077,1.3653 -4.135312,1.3338 -0.931234,-0.032 -2.872621,-0.4657 -2.872621,-0.4657 -1.16646,-0.035 -1.815118,0.2683 -2.4227873,0.1815 -0.5954446,-0.085 -1.6596212,-0.5943 -2.2593993,-1.3109 -0.5077489,-0.6066 -1.009518,-1.6329 -1.1831379,-2.2484 -0.4344269,-1.2676 -0.2037772,-3.8681 -0.11695,-4.4284 0.086833,-0.5603 -0.1709849,-2.6821 -0.075111,-3.1642 0.087259,-0.4389 0.2687217,-2.5393 0.3969304,-3.4099 0.1957776,-1.3296 0.7448356,-2.4236 3.0324804,-3.7393 0,0 1.8084547,0.4428 2.5897447,1.2951 z"
       id="path4195"
       inkscape:connector-curvature="0"
       sodipodi:nodetypes="sccsscsscscccsccccsscssscs" />
    <path
       style="fill:#1d0707;fill-opacity:1;fill-rule:evenodd;stroke:#000000;stroke-width:0.1;stroke-linecap:butt;stroke-linejoin:miter;stroke-miterlimit:4;stroke-dasharray:none;stroke-opacity:1"
       d="m 12.890794,1033.6717 c 1.016934,0.5676 1.522962,0.9298 1.792395,1.7389 0.378807,1.2154 0.554331,2.2279 0.483304,2.9382 -0.11394,1.1226 -0.291997,1.3416 -0.797073,2.5017 -0.505077,1.1601 -1.706605,3.7095 -3.314563,3.504 -2.692688,-0.3441 -3.4906814,-1.8558 -3.893164,-3.1501 -0.4024827,-1.2943 -0.3721845,-2.1455 -0.3721845,-2.1455 0,0 0.04624,-2.4047 0.2987786,-3.2176 0.2525382,-0.8128 0.4389277,-1.5173 1.0939485,-1.8803 0.6550208,-0.363 1.5152289,-0.4883 2.1386824,-0.5277 0.69448,-0.063 1.662935,-0.2678 2.569876,0.2384 z"
       id="path4197"
       inkscape:connector-curvature="0"
       sodipodi:nodetypes="sccsssccscs" />
    <path
       style="fill:#ffffff;fill-opacity:1;fill-rule:evenodd;stroke:#000000;stroke-width:0.1;stroke-linecap:butt;stroke-linejoin:miter;stroke-miterlimit:4;stroke-dasharray:none;stroke-opacity:1"
       d="m 9.7132481,1037.2045 c -0.3710938,-2.1641 0.1564681,-3.7383 0.1564681,-3.7383 0,0 0.9808058,1.0409 1.4534618,3.5331 0.6875,-1.7617 0.878296,-3.3403 0.878296,-3.3403 0,0 0.599053,2.2467 0.599053,3.5123 1.135723,-1.2003 1.359557,-2.655 1.359557,-2.655 -0.138107,-0.1768 -0.873969,-0.8047 -1.890435,-1.1472 -2.4306795,-0.6629 -3.8075278,0.2976 -4.379046,0.7554 -0.2762135,0.2375 -0.6977744,1.1354 -0.8774619,1.862 0,0 0.448917,0.9616 1.3082918,1.5398 -0.140625,-1.0625 -0.1730286,-3.6107 -0.1730286,-3.6107 0,0 0.9710938,2.8983 1.5648438,3.2889 z"
       id="path4199"
       inkscape:connector-curvature="0"
       sodipodi:nodetypes="cccccccccccc" />
    <path
       style="fill:#ffffff;fill-opacity:1;fill-rule:evenodd;stroke:#000000;stroke-width:0.2;stroke-linecap:butt;stroke-linejoin:miter;stroke-miterlimit:4;stroke-dasharray:none;stroke-opacity:1"
       d="m 8.4799198,1041.7767 c -0.1049612,0.7016 0.3368179,1.7854 0.3368179,1.7854 0,0 0.4586773,-0.6119 0.9448132,-1.1201 -0.082864,0.7789 0.5688371,1.761 0.5688371,1.761 0,0 0.324199,-0.023 0.556218,-1.3159 0.497184,0.569 1.255744,0.99 1.255744,0.99 0,0 0.730448,-1.0237 0.56472,-2.1838 0.767874,0.3812 0.855017,0.637 0.855017,0.637 0,0 -0.232019,0.9999 -1.447359,1.7843 -1.618612,0.5634 -3.0107281,-0.1934 -3.0107281,-0.1934 l -1.3700194,-1.1878 c 0,0 0.011211,-0.4485 0.7459393,-0.9567 z"
       id="path4231"
       inkscape:connector-curvature="0"
       sodipodi:nodetypes="cccccccccccc" />
    <path
       style="fill:#cd4035;fill-opacity:1;fill-rule:evenodd;stroke:#751d1d;stroke-width:0.1;stroke-linecap:butt;stroke-linejoin:miter;stroke-miterlimit:4;stroke-dasharray:none;stroke-opacity:1"
       d="m 16.965149,1042.4349 c 0,0 2.703125,2.8907 3.90625,4.375 1.203125,1.4844 2.71875,4.125 2.71875,4.125 0,0 -2.46875,-2.4218 -4.109375,-4.3437 -1.640625,-1.9219 -3.734375,-3.0156 -3.734375,-3.0156"
       id="path4235"
       inkscape:connector-curvature="0"
       sodipodi:nodetypes="cccsc" />
    <g
       id="g4851"
       transform="matrix(0.41960621,0,0.00269784,0.64208857,9.9240888,369.14531)">
      <path
         inkscape:connector-curvature="0"
         id="path4138"
         d="m -22.887403,1052.0545 2.209709,-5.0602 -5.966214,-8.2422 2.778972,-1.6892 9.816367,4.4071 2.894719,8.9935 -5.08233,1.5026 z"
         style="fill:#292929;fill-opacity:1;fill-rule:evenodd;stroke:none;stroke-width:1px;stroke-linecap:butt;stroke-linejoin:miter;stroke-opacity:1"
         sodipodi:nodetypes="cccccccc" />
      <path
         sodipodi:nodetypes="ccccc"
         inkscape:connector-curvature="0"
         id="path4140"
         d="m -20.920762,1052.2755 c 0,0 0.37565,-1.7898 1.149049,-2.7621 0.839689,-0.8397 1.370019,-1.1269 3.049397,-1.4142 1.579941,0.055 3.027301,2.4748 3.027301,2.4748 z"
         style="fill:#a0008f;fill-opacity:1;fill-rule:evenodd;stroke:none;stroke-width:1px;stroke-linecap:butt;stroke-linejoin:miter;stroke-opacity:1" />
      <path
         sodipodi:nodetypes="sccccscssscsccccssccscsc"
         inkscape:connector-curvature="0"
         id="path4144"
         d="m -21.878903,1034.2543 c -0.0692,2e-4 -0.862245,0.018 -0.927045,0.018 -4.14162,0.303 -5.19654,4.7785 -5.233895,6.2447 0,0 3.73782,1.6164 6.9703,6.4652 -0.40406,1.9192 -3.03046,4.1414 -3.03046,4.1414 0,0 3.93938,4.2426 8.18202,3.2324 4.24264,-1.0102 10.8085997,-9.0912 10.8085997,-9.0912 0,0 2.4794,3.1934 3.40848,1.3002 0.74188,-1.5114 0.1292,-8.1332 -0.8407,-8.531 -1.5509,-0.6362 -3.64026,3.8714 -4.17832,3.5282 -3.8494597,-2.4554 -10.9253877,-7.1031 -15.1589797,-7.3156 z m -1.485913,3.8883 c 0.52086,0 1.078166,0.082 1.936806,0.3086 3.4345,0.9092 6.015107,3.2859 6.015107,3.2859 l 1.11134,2.8282 2.62616,5.455 c 0,0 -1.00992,-0.8082 -3.13124,-0.8082 -2.12132,0 -3.13142,2.5254 -4.74766,2.5254 -1.61624,0 -3.03046,-0.202 -3.03046,-0.202 l 2.32342,-4.0406 c 0,0 -1.71734,-3.6366 -3.33358,-5.657 -1.61624,-2.0202 -2.22228,-2.7274 -2.22228,-2.7274 0,0 0.889807,-0.9821 2.452387,-0.9679 z"
         style="fill:#11f100;fill-opacity:1;fill-rule:evenodd;stroke:#000000;stroke-width:0.2px;stroke-linecap:butt;stroke-linejoin:miter;stroke-opacity:1" />
      <path
         sodipodi:nodetypes="cccccc"
         inkscape:connector-curvature="0"
         id="path4143"
         d="m -22.75561,1037.4058 c 2.31525,0.2388 4.797668,1.2025 6.028793,2.2864 0,0 0.367052,-2.802 -1.507198,-3.794 -0.790125,-0.3492 -1.660952,-0.3337 -2.928828,-0.059 -1.35975,0.2023 -1.592767,1.566 -1.592767,1.566 z"
         style="fill:#ffffff;fill-opacity:1;fill-rule:evenodd;stroke:none;stroke-width:1px;stroke-linecap:butt;stroke-linejoin:miter;stroke-opacity:1" />
      <path
         sodipodi:nodetypes="ccccc"
         inkscape:connector-curvature="0"
         id="path4145"
         d="m -26.823074,1039.0321 c 0.716622,-1.0658 2.97675,-1.562 2.97675,-1.562 0,0 -0.183762,-0.8451 -1.378128,-0.9738 -0.496122,0 -1.120872,0.072 -1.617,1.1577 -0.275622,0.588 0.01835,1.3781 0.01835,1.3781 z"
         style="fill:#ffffff;fill-opacity:1;fill-rule:evenodd;stroke:none;stroke-width:1px;stroke-linecap:butt;stroke-linejoin:miter;stroke-opacity:1" />
      <path
         inkscape:connector-curvature="0"
         id="path4143-4"
         d="m -19.594004,1036.7936 a 1.1208749,1.120875 0 0 0 -0.712032,0.294 1.1208749,1.120875 0 0 0 -0.358312,0.7121 c 0.731503,0.1975 1.41075,0.4558 2.044219,0.744 a 1.1208749,1.120875 0 0 0 -0.101064,-1.3872 1.1208749,1.120875 0 0 0 -0.872811,-0.3629 z"
         style="fill:#000000;fill-opacity:1;fill-rule:evenodd;stroke:none;stroke-width:1px;stroke-linecap:butt;stroke-linejoin:miter;stroke-opacity:1" />
      <path
         inkscape:connector-curvature="0"
         id="path4145-1"
         d="m -25.300329,1037.3577 a 0.64965406,0.6496541 0 0 0 -0.408843,0.1695 l -0.02305,0.024 a 0.64965406,0.6496541 0 0 0 -0.151586,0.6843 c 0.468636,-0.2649 0.791996,-0.3884 1.189778,-0.5142 a 0.64965406,0.6496541 0 0 0 -0.10566,-0.1528 0.64965406,0.6496541 0 0 0 -0.500718,-0.207 z"
         style="fill:#000000;fill-opacity:1;fill-rule:evenodd;stroke:none;stroke-width:1px;stroke-linecap:butt;stroke-linejoin:miter;stroke-opacity:1" />
    </g>
    <path
       style="fill:#ffffff;fill-opacity:1;fill-rule:evenodd;stroke:#000000;stroke-width:0.08639999;stroke-linecap:butt;stroke-linejoin:miter;stroke-miterlimit:4;stroke-dasharray:none;stroke-opacity:1"
       d="m 7.948587,1028.3239 c 0.074251,0.9921 1.1788998,2.0107 1.1788998,2.0107 0,0 -0.4786199,0.2585 -1.2076199,0.017 -0.3442501,-0.1625 -0.4989039,-0.3328 -0.519154,-0.5083 -0.020251,-0.9045 0.5478741,-1.5197 0.5478741,-1.5197 z"
       id="path4860"
       inkscape:connector-curvature="0"
       sodipodi:nodetypes="ccccc" />
    <path
       style="fill:#ffffff;fill-opacity:1;fill-rule:evenodd;stroke:#000000;stroke-width:0.08639999;stroke-linecap:butt;stroke-linejoin:miter;stroke-miterlimit:4;stroke-dasharray:none;stroke-opacity:1"
       d="m 11.782415,1028.1527 c -0.07424,0.9923 -1.165399,1.9635 -1.165399,1.9635 0,0 0.47862,0.2585 1.20762,0.017 0.344249,-0.1624 0.498903,-0.3329 0.519154,-0.5085 0.02024,-0.9044 -0.561375,-1.4722 -0.561375,-1.4722 z"
       id="path4860-0"
       inkscape:connector-curvature="0"
       sodipodi:nodetypes="ccccc" />
    <path
       style="fill:#000000;fill-opacity:1;fill-rule:evenodd;stroke:#000000;stroke-width:0.08639999;stroke-linecap:butt;stroke-linejoin:miter;stroke-miterlimit:4;stroke-dasharray:none;stroke-opacity:1"
       d="m 8.3879536,1029.6529 a 0.6885,0.46237499 0 0 0 -0.4353752,0.1209 l -0.00337,0 a 0.6885,0.46237499 0 0 0 -0.1856249,0.486 c 0.047477,0.028 0.070286,0.058 0.1282507,0.085 0.6285662,0.208 1.0037758,0.059 1.1137498,0.017 a 0.6885,0.46237499 0 0 0 0.050624,-0.074 c -0.037297,-0.035 -0.2678578,-0.2544 -0.54,-0.6208 a 0.6885,0.46237499 0 0 0 -0.1282507,0 z"
       id="path4860-09"
       inkscape:connector-curvature="0" />
    <path
       style="fill:#000000;fill-opacity:1;fill-rule:evenodd;stroke:#000000;stroke-width:0.08639999;stroke-linecap:butt;stroke-linejoin:miter;stroke-miterlimit:4;stroke-dasharray:none;stroke-opacity:1"
       d="m 11.202098,1029.4964 c -0.287479,0.3782 -0.567,0.6347 -0.567,0.6347 0,0 0.479251,0.2581 1.208251,0.017 0.08659,-0.042 0.128894,-0.084 0.192374,-0.1239 a 0.80325,0.50287499 0 0 0 -0.20925,-0.3612 0.80325,0.50287499 0 0 0 -0.624375,-0.1658 z"
       id="path4860-0-9"
       inkscape:connector-curvature="0" />
  </g>
</svg>
